<svg width="38" height="38" viewBox="0 0 38 38" fill="none" xmlns="http://www.w3.org/2000/svg">
<g clip-path="url(#clip0_7001_3711)">
<path d="M1.48926 12.1285C1.49252 12.0432 1.49464 12.0866 1.49656 12.2281C1.49413 12.2347 1.49184 12.1981 1.48926 12.1285Z" fill="#2F261C"/>
<path d="M37.915 36.1829C35.5434 36.1814 30.3482 36.1741 31.7922 36.1963C32.0013 36.1994 35.9437 36.2087 37.915 36.2005V37.818C37.7688 37.8195 37.7348 37.8228 37.915 37.8285V37.8476C36.8304 37.8459 35.8969 37.8475 35.416 37.856C34.4082 37.8737 36.3658 37.8759 37.915 37.8805V37.9031C34.2485 37.9139 30.5745 37.8951 27.1167 37.8976C27.0468 37.8977 27.6529 37.9161 26.769 37.9187C25.2305 37.9232 24.8267 37.897 24.078 37.8928C23.2706 37.8884 20.4149 37.8921 20.033 37.8826C19.9844 37.8813 20.563 37.8554 20.6507 37.8546C21.8946 37.8439 22.3365 37.8776 22.4497 37.8781C22.875 37.8793 23.2928 37.8664 23.6807 37.8672C24.3194 37.8685 24.6711 37.8804 25.5142 37.8815C26.0959 37.8823 25.5346 37.8593 26.0951 37.8604C26.3009 37.8608 28.5207 37.9132 28.7277 37.8598C28.7919 37.8429 10.6391 37.8213 8.82461 37.8347C10.381 37.8412 11.9374 37.8476 13.4937 37.854C11.9042 37.8462 10.1537 37.853 8.77208 37.8538C7.25782 37.8553 6.18818 37.457 6.06206 37.39C2.52584 36.284 -0.0544907 32.7324 0.000874194 29.0177C0.00455823 20.6173 0.00824237 12.2169 0.0119265 3.8165C0.016969 1.84636 0.0529811 2.7399 0.0476167 0H0.0563718C0.0546954 1.10633 0.0552541 2.23966 0.0574646 2.36551C0.0642627 2.26528 0.0697866 1.08597 0.0731004 0H1.46241C1.4625 1.40066 1.46259 2.80132 1.46268 4.20198C1.48451 4.12879 1.48475 1.93122 1.48172 0H1.49896C1.5053 3.27495 1.5019 8.2214 1.49324 9.11585C1.5016 8.04314 1.50997 6.97043 1.51833 5.89771C1.56282 7.72938 1.50501 11.7832 1.52466 14.4326C1.53103 15.2885 1.5482 13.6449 1.54938 13.679C1.56665 14.641 1.55334 16.1844 1.53014 15.0303C1.55237 17.3786 1.52784 17.0355 1.526 18.8375C1.52592 18.9304 1.54388 18.1567 1.55132 19.5825C1.55479 20.2506 1.55485 23.8137 1.57056 24.2907C1.57718 24.4869 1.64681 22.6795 1.58688 22.4563C1.61609 18.5809 1.55956 21.2181 1.56094 19.7125C1.56126 19.4816 1.59471 20.0127 1.57896 16.2214C1.63929 16.9435 1.59418 21.3094 1.60149 22.0578C1.6165 23.6011 1.64766 17.2411 1.60063 16.0741C1.64771 16.6195 1.60698 15.6231 1.60891 14.2052C1.61102 12.6534 1.62503 13.3297 1.62511 12.4899C1.62546 10.1935 1.59223 11.1456 1.62219 9.25229C1.52944 11.0981 1.60995 6.01123 1.63424 4.52904C1.63895 6.94082 1.64365 9.3526 1.64836 11.7645C1.65324 11.6266 1.65811 11.4887 1.66297 11.3508C1.66228 11.9861 1.6616 12.6214 1.66091 13.2566C1.65624 13.1549 1.65157 13.053 1.6469 12.9512C1.67725 16.227 1.64314 17.0262 1.64277 17.2934C1.63881 20.732 1.6391 24.7037 1.63899 28.1801C1.63899 28.4565 1.64749 28.486 1.65197 29.0177C1.67644 29.4321 1.60991 30.2457 2.18106 31.7411C2.6318 32.7241 2.13428 31.8317 2.75209 32.8958C3.68679 34.1176 3.71881 34.0513 4.03686 34.3784C5.02862 35.247 5.8132 35.5086 5.91421 35.5651C6.68063 35.9061 7.70964 36.1669 8.77208 36.1616C9.86297 36.1617 10.9673 36.1617 11.9193 36.1606C11.9566 36.1603 10.9235 36.1406 12.213 36.1464C12.6661 36.1485 16.7282 36.233 20.2793 36.2055C19.3557 36.1998 18.432 36.194 17.5085 36.1883C18.5946 36.1962 26.2045 36.175 24.3437 36.1524C23.2031 36.1386 20.4184 36.193 20.1129 36.1407C22.6454 36.1563 36.6315 36.1329 37.7204 36.1451C37.8709 36.1468 36.9443 36.1638 37.1524 36.1659C37.199 36.1664 37.5002 36.1664 37.915 36.1664V36.1829ZM35.6925 36.1788C36.4053 36.1812 36.8868 36.1535 36.7637 36.1512C36.2126 36.1406 34.8801 36.163 35.6925 36.1788ZM28.9437 36.193C26.9302 36.1667 29.1657 36.1922 29.0776 36.1645C27.7228 36.1635 24.3524 36.1621 26.6696 36.1894C27.1209 36.1947 28.312 36.1912 28.9437 36.193ZM30.801 36.2023C31.0168 36.1933 32.468 36.165 31.2134 36.167C30.6334 36.168 29.6986 36.1995 30.801 36.2023ZM24.104 36.2095C24.5738 36.2097 26.4822 36.2062 26.5227 36.2016C26.6519 36.1857 24.3092 36.1943 24.104 36.2095ZM34.7401 36.2785C35.3036 36.274 33.5706 36.2471 33.9583 36.2418C34.2067 36.2386 35.4659 36.2487 35.8674 36.2403C35.9813 36.2376 34.6969 36.2122 34.3254 36.2133C33.7978 36.2148 34.3096 36.2348 33.7337 36.2349C31.8219 36.2353 30.1269 36.2211 28.3347 36.2215C28.1728 36.2215 29.4279 36.2356 28.0474 36.2354C27.8341 36.2354 26.5523 36.2145 24.9008 36.2176C21.2536 36.2823 18.5757 36.2187 13.9472 36.2421C14.1219 36.2482 17.5832 36.2646 17.7871 36.2652C21.6558 36.2758 28.5867 36.277 32.6388 36.2771C33.6785 36.2772 33.1735 36.2635 33.6215 36.263C33.9753 36.2626 33.5545 36.288 34.7401 36.2785ZM1.57702 24.8343C1.57799 25.3822 1.57037 27.0804 1.57798 27.2208C1.58794 27.4016 1.59421 24.9501 1.57702 24.8343ZM8.80517 36.2724C9.90155 36.2778 9.67397 36.2526 9.60639 36.2519C9.33708 36.2492 9.02585 36.2498 8.77208 36.252C8.30364 36.2487 8.05042 36.2485 8.77208 36.2722C8.78289 36.2723 8.79396 36.2723 8.80517 36.2724ZM1.53306 25.5749C1.52014 25.1516 1.51668 27.2845 1.52356 27.9138C1.53934 28.1076 1.53487 25.6331 1.53306 25.5749ZM1.45805 8.49863C1.4498 9.24218 1.47067 11.6123 1.48971 12.1284C1.48603 12.2243 1.48122 12.4832 1.47547 12.9577V12.9534C1.46778 13.5942 1.45937 32.7499 1.49605 19.9009C1.49722 19.4985 1.48013 20.0481 1.48314 18.4109C1.48336 18.3027 1.49731 18.2489 1.49799 17.915C1.49947 17.146 1.50825 13.051 1.49701 12.228C1.49961 12.221 1.50207 12.1678 1.50432 12.0546C1.52445 11.0453 1.46442 7.92182 1.45805 8.49863ZM1.46767 6.15107C1.46662 6.22208 1.45892 8.39231 1.4762 8.09586C1.50152 7.66287 1.47707 5.53885 1.46767 6.15107ZM0.294285 9.21768C0.311702 10.8145 0.316862 5.89831 0.296234 7.3205C0.295262 7.39061 0.293472 9.13927 0.294285 9.21768ZM24.6115 37.8299C25.4172 37.8349 28.8535 37.8334 27.5161 37.8187C27.3085 37.8165 24.6719 37.8161 24.6115 37.8299ZM34.8329 37.8841C37.0805 37.8575 27.6428 37.8386 30.1228 37.8717C30.3001 37.8741 34.6372 37.8863 34.8329 37.8841Z" fill="#2F261C"/>
</g>
<defs>
<clipPath id="clip0_7001_3711">
<rect width="38" height="38" fill="white"/>
</clipPath>
</defs>
</svg>
