<svg width="210" height="58" viewBox="0 0 210 58" fill="none" xmlns="http://www.w3.org/2000/svg">
<path d="M181.525 46.808C181.268 46.8876 180.21 47.1874 179.744 47.3182C180.27 47.1481 182.469 46.5195 181.525 46.808ZM132.927 56.834C133.33 56.7972 133.731 56.7598 134.131 56.7217C132.996 56.8071 131.436 56.9252 130.385 56.9893C130.213 56.9998 130.659 56.9505 130.251 56.9772C129.842 57.0036 129.923 57.0247 129.328 57.0662C128.668 57.1153 125.569 57.2792 124.523 57.3293C120.545 57.535 116.515 57.6904 112.545 57.7565C116.656 57.6464 112.518 57.7232 111.356 57.747C111.1 57.7493 111.138 57.815 107.012 57.8324C105.224 57.8347 105.772 57.7977 104.928 57.7885C104.529 57.7834 103.819 57.7847 102.414 57.7873C105.793 57.8487 102.46 57.8434 99.8349 57.8094C99.3792 57.8076 95.6899 57.7353 94.0789 57.6873C93.5193 57.6726 92.6681 57.6726 91.9306 57.6485C91.4231 57.6318 91.0401 57.6046 90.2899 57.5771C86.7788 57.4472 83.3242 57.2696 79.8179 57.0317C81.8626 57.1007 78.2249 56.8982 78.0455 56.878C77.2125 56.8033 80.9908 57.0579 79.4998 56.945C77.4042 56.8056 75.3172 56.6481 73.2298 56.471C74.9553 56.6275 70.94 56.3294 70.2228 56.2332C70.5597 56.3561 60.7043 55.1814 59.2416 54.9632C58.9356 54.9222 60.9495 55.2372 56.2422 54.5725C55.7363 54.4987 55.9303 54.5087 55.6652 54.4722C55.5142 54.4514 54.5211 54.3639 53.4908 54.1749C53.1201 54.1004 55.5189 54.4586 50.2459 53.624C52.3327 54.0518 42.9171 52.3853 41.2032 51.9557C41.5479 52.0352 41.8944 52.1141 42.2426 52.1925C40.5204 51.8201 40.2212 51.7699 39.8379 51.6877C38.3367 51.3629 36.1512 50.8407 34.7644 50.5002C33.0669 50.0814 33.0476 50.1156 31.1364 49.5929C31.5866 49.7222 32.0396 49.85 32.4973 49.9769C31.184 49.6342 29.7971 49.2531 28.4833 48.8705C31.5801 49.7026 27.8144 48.6826 27.5813 48.6047C27.1789 48.4865 27.7607 48.6406 27.0899 48.442C27.0221 48.4212 27.1104 48.4702 26.0923 48.1585C23.9911 47.5028 24.3349 47.5788 23.4386 47.2832C23.3603 47.255 23.6254 47.3702 22.1127 46.8498C17.2806 45.1078 22.1656 46.872 22.3249 46.9084C22.5766 46.9814 20.9148 46.3813 25.0448 47.7664C23.6842 47.3203 23.5219 47.2266 23.3729 47.1773C23.2164 47.1314 20.8832 46.3166 20.7251 46.2516C19.5429 45.8246 20.572 46.2281 20.3412 46.1464C20.1429 46.0883 17.3255 44.9592 16.6417 44.7181C15.3242 44.0835 17.4529 45.0438 19.714 45.8868C20.0443 46.0073 17.572 45.0282 17.4274 44.957C14.2572 43.6097 16.0015 44.3958 15.2861 44.1188C14.9024 43.9667 13.6288 43.3371 14.8047 43.9286C11.9573 42.5898 13.6985 43.3814 13.5105 43.2926C13.2562 43.1668 12.229 42.6622 12.112 42.5965C11.9317 42.4999 12.5689 42.8156 11.8568 42.4382C11.7386 42.3757 10.5916 41.7935 12.054 42.5823C10.1155 41.5492 10.243 41.6085 9.61324 41.1953C8.26693 40.4722 8.70377 40.5782 8.18195 40.2383C6.83191 39.318 7.20682 39.6309 7.12858 39.5862C6.58567 39.3312 3.13949 36.3858 2.49668 35.3606C2.7468 35.7241 5.0171 38.0442 5.57685 38.4062C6.5071 39.1241 5.84097 38.609 5.17342 38.0317C4.47631 37.4308 3.77719 36.7166 4.41697 37.2903C3.88199 36.8124 3.37411 36.3141 2.88092 35.7604C2.11653 34.6719 3.11087 36.3134 1.18628 33.2153C1.03149 32.9455 1.33353 33.5594 1.66782 34.0769C2.00466 34.6114 2.4095 35.1277 2.20276 34.874C1.9208 34.5971 0.86995 32.7603 0.881518 32.6948C0.822562 32.6798 1.77952 34.3631 1.62477 34.0948C1.42973 33.8635 0.47724 32.134 0.247639 30.9297C0.112739 30.3518 0.0775853 29.9299 0.0911418 30.0175C0.121235 30.1014 0.130892 30.6881 0.595117 31.9892C0.150876 30.726 0.0951816 29.9465 0.0774034 28.8936C0.0773406 28.7355 0.0805235 28.5713 0.0880336 28.3982C0.105816 28.077 0.0512034 28.5493 0.0381038 28.8936C0.0270062 29.1875 0.0175604 29.3852 0.000327826 28.8936C0.0158572 28.4391 -0.0810745 27.2613 0.782011 25.2239C0.827581 25.161 0.531533 25.8043 0.330238 26.5409C0.121765 27.2597 0.0395083 28.0549 0.0393244 28.0933C0.0297391 28.2045 0.155094 27.6593 0.177912 27.5667C0.191408 27.4063 0.534906 25.457 1.65306 23.7497C2.73046 22.005 4.26889 20.5955 4.84716 20.1068C4.31145 20.3666 8.98121 16.9075 9.54014 16.7086C9.67935 16.6207 9.14095 16.9191 9.29012 16.8259C10.2156 16.2155 12.9051 14.8268 14.1224 14.2764C15.5224 13.624 15.3543 13.6918 15.4299 13.6548C16.0557 13.3783 15.5636 13.6112 15.9371 13.4467C16.478 13.1761 20.4793 11.5985 20.6985 11.5406C20.7585 11.5178 20.082 11.7412 20.9737 11.4099C21.1392 11.3556 21.0152 11.399 23.6404 10.4963C26.8236 9.43032 21.4204 11.2028 22.735 10.7368C24.7945 10.0814 24.7104 10.0821 25.2575 9.90741C25.4355 9.85155 26.9046 9.42188 28.443 8.97535C27.3623 9.29422 26.1885 9.65629 25.1066 10.008C26.179 9.66635 28.3394 9.01357 29.2288 8.77292C29.6725 8.65136 29.3117 8.78031 30.2807 8.51064C30.4929 8.45501 31.2704 8.1566 28.7642 8.89787C28.5569 8.93132 29.7511 8.60624 30.3152 8.44541C30.3962 8.42218 30.7373 8.28467 31.4468 8.12132C31.6347 8.08767 29.7559 8.66962 34.5757 7.35974C34.7328 7.3181 34.1806 7.43896 34.3341 7.39787C34.4492 7.366 35.6641 7.07701 35.8001 7.04359C35.9375 7.00835 35.3442 7.13353 35.5076 7.0911C36.3453 6.8733 37.4761 6.67543 35.7286 7.08274C36.311 6.95185 36.8991 6.82271 37.4927 6.69534C36.841 6.79425 38.4428 6.46298 39.2305 6.29138C44.4481 5.17543 40.9474 5.88555 41.8425 5.67953C43.3066 5.3569 42.1937 5.66095 44.3337 5.21759C44.5384 5.18166 41.9087 5.62712 47.0208 4.69907C46.2824 4.83338 45.5059 4.9785 44.7593 5.12217C45.2002 5.08293 47.4848 4.61402 47.6488 4.5871C49.6399 4.23431 48.2924 4.47549 51.2738 3.95883C51.5361 3.91408 52.1117 3.83351 52.6784 3.73921C55.0245 3.34721 49.5871 4.21252 49.4164 4.23614C49.3601 4.21994 55.2168 3.29766 55.4387 3.28645C56.3072 3.17682 52.7537 3.69473 53.4355 3.61903C53.7085 3.55575 62.0622 2.3879 63.7816 2.23353C65.7343 2.01981 66.6084 1.99614 66.616 1.92195C67.174 1.93364 67.6577 1.83531 67.9091 1.8101C70.9442 1.51313 70.919 1.51945 73.5331 1.28467C74.1153 1.23374 74.5862 1.21689 74.7898 1.19673C74.9068 1.18511 74.6856 1.17971 75.2598 1.12658C76.0535 1.04421 80.8928 0.728971 81.2459 0.727714C81.6034 0.716618 79.2143 0.864505 79.6444 0.857927C81.3637 0.744781 83.054 0.638481 84.7904 0.549113C85.5128 0.512366 85.1424 0.546355 85.4548 0.530594C85.5853 0.521976 88.0949 0.391194 87.9902 0.392257C87.7323 0.371056 79.9996 0.811234 82.0345 0.672913C82.4271 0.643464 83.8271 0.597538 83.6027 0.569503C90.5188 0.192025 97.4418 0.0108302 104.364 0.00999224C100.374 0.0448708 95.9189 0.0917611 91.739 0.238197C91.1664 0.256537 89.2462 0.326732 89.4809 0.338823C93.0075 0.199602 97.4227 0.0807756 100.824 0.0621979C100.932 0.0615143 100.534 0.0842387 100.94 0.0829723C101.698 0.0785214 104.185 0.0368553 104.606 0.0462217C104.677 0.0474213 103.26 0.0754172 103.691 0.0898984C104.249 0.108347 104.597 0.095642 104.928 0.0783817C105.253 0.0614806 105.56 0.0402188 106.032 0.0420183C106.773 0.0371585 111.686 0.131395 112.921 0.138373C114.232 0.132347 109.275 0.0575762 109.651 0.0450877C113 0.0612357 116.374 0.172124 119.527 0.288544C119.582 0.290589 119.103 0.253876 119.804 0.27794C121.018 0.320726 121.348 0.362177 121.945 0.392353C122.593 0.423424 124.861 0.531671 125.161 0.558809C125.199 0.562045 124.74 0.563948 124.67 0.561164C123.684 0.521267 123.333 0.47173 123.243 0.466807C122.905 0.449375 122.571 0.446857 122.261 0.432134C121.751 0.408011 121.47 0.383657 120.795 0.354639C120.335 0.335127 120.778 0.376021 120.335 0.357144C120.173 0.349167 118.414 0.23145 118.246 0.280245C118.186 0.231663 132.612 1.01183 134.071 1.1901C132.843 1.08746 131.584 0.989408 130.357 0.9002C132.879 1.08274 135.883 1.28883 136.091 1.37103C145.412 2.16451 154.685 3.32638 163.864 5.02428C165.512 5.33983 164.619 5.2031 167.285 5.71914C166.603 5.56869 165.915 5.42045 165.22 5.27444C166.578 5.51698 172.702 6.84369 173.681 7.09412C173.811 7.12506 173.981 7.1216 175.502 7.49238C176.863 7.82848 177.064 7.91249 177.774 8.10314C178.364 8.26239 179.04 8.43815 179.224 8.4902C179.362 8.52929 179.413 8.56041 179.743 8.65491C180.781 8.95448 179.954 8.67218 180.963 9.01567C180.714 8.94651 180.464 8.87771 180.213 8.80926C181.466 9.16807 183.115 9.68661 181.31 9.16883C180.997 9.08057 181.27 9.14242 181.037 9.0752C171.776 6.58464 179.183 8.53602 182.397 9.48331C183.249 9.73522 187.85 11.235 187.98 11.3124C188.185 11.3925 187.412 11.1378 188.411 11.5113C188.674 11.5504 194.68 13.9656 192.505 13.1151C192.033 12.9109 189.186 11.7983 188.438 11.5452C190.127 12.1759 193.951 13.6809 194.36 13.8931C196.085 14.6698 191.048 12.4758 194.918 14.2009C197.845 15.5892 195.121 14.2566 196.244 14.778C196.899 15.0474 200.122 16.8591 200.053 16.7979C201.137 17.4467 200.489 17.0866 200.622 17.1688C200.737 17.2211 202.858 18.5963 203.494 19.1347C203.573 19.1971 203.305 19.0239 203.387 19.089C203.571 19.1979 205.417 20.7626 205.476 20.8598C205.524 20.9016 205.111 20.4845 205.291 20.6453C205.52 20.7974 207.135 22.5566 207.18 22.6716C207.353 22.7853 205.349 20.623 205.695 20.9821C206.672 21.8928 208.045 23.6796 208.453 24.4875C208.349 24.2717 207.653 23.1713 207.344 22.7953C207.582 22.9151 209.007 25.4068 208.496 24.562C208.8 25.1216 208.611 24.7306 208.78 25.0456C208.833 25.1274 209.168 25.9445 209.223 26.124C209.239 26.137 208.918 25.2665 208.99 25.4383C209.058 25.5778 209.358 26.3178 209.514 27.0597C209.684 27.8051 209.709 28.5696 209.707 28.6821C209.705 29.0043 209.71 28.594 209.655 28.0854C209.605 27.5741 209.465 26.9786 209.434 26.8918C209.472 26.8518 209.692 28.7669 209.637 28.7983C209.623 28.8545 209.621 28.348 209.557 27.8634C209.497 27.3751 209.384 26.9245 209.399 27.0441C209.507 27.55 209.571 28.0816 209.583 28.605C209.671 26.4868 207.767 23.2331 207.091 22.5996C209.034 24.7832 209.581 28.0401 209.441 28.0176C209.435 28.0119 209.187 26.7682 209.173 26.824C209.24 26.9942 209.482 28.7459 209.436 28.8152C209.435 28.869 209.433 28.8935 209.432 28.8936C209.432 28.8936 209.432 28.8936 209.432 28.8936C209.425 28.8935 209.424 28.2628 209.314 27.6267C209.215 26.9914 209.012 26.3721 208.988 26.3118C208.924 26.1145 209.175 27.1926 209.147 27.1933C209.179 27.1514 208.614 25.4695 208.786 26.0444C209.014 26.6152 209.266 28.1199 209.24 28.1813C209.245 28.3303 209.204 27.7237 209.055 27.1032C208.917 26.4838 208.653 25.8217 208.638 25.7978C208.641 25.7445 209.053 27.1344 209.026 27.1759C209.041 27.2129 208.75 26.1572 208.556 25.7784C208.43 25.4909 208.746 26.3519 208.684 26.204C208.715 26.0612 207.584 23.8501 207.462 23.7895C207.359 23.6406 207.662 24.1333 207.611 24.0653C207.55 23.9678 207.094 23.3018 207.146 23.392C207.171 23.4301 207.625 24.0763 207.974 24.7701C208.343 25.4792 208.564 26.1851 208.557 26.1883C208.585 26.1386 207.222 23.1918 208.399 25.9661C208.411 25.9801 208.656 26.6848 208.653 26.7046C208.744 27.1455 208.131 24.8914 208.821 27.6605C208.221 25.0575 207.833 25.0378 208.064 25.3764C208.235 25.734 208.533 26.6495 208.383 26.2859C208.324 25.9876 207.364 24.1706 207.326 24.1952C207.416 24.3691 207.753 24.917 207.842 25.1293C207.915 25.2147 206.96 23.6842 207.154 24.0416C207.298 24.1923 208.196 25.9157 208.175 25.9957C208.427 26.7152 208.088 25.8424 208.136 26.0058C208.188 26.1019 208.522 27.216 208.507 27.2445C208.547 27.2896 208.056 25.7929 207.878 25.5261C207.774 25.3054 208.128 26.1507 208.055 25.9956C207.691 25.027 206.507 23.1568 207.547 25.0028C207.616 25.121 207.957 25.8452 207.956 25.8673C208.134 26.324 207.548 24.985 207.368 24.7656C207.127 24.3719 208.155 26.2531 207.293 24.7011C207.922 25.8717 208.229 26.5468 208.452 28.0444C208.177 25.9584 207.228 24.7134 207.088 24.4791C206.849 24.239 207.523 24.8437 208.184 27.0661C207.759 25.6364 207.708 25.8536 207.536 25.4428C207.455 25.1554 206.29 23.3466 206.769 24.2221C206.848 24.3243 207.499 25.4415 207.278 25.099C205.609 22.4511 207.275 25.0363 207.231 25.0509C207.21 25.0481 206.271 23.367 204.71 21.8902C203.177 20.3792 201.26 19.0975 200.662 18.7156C199.353 17.8722 198.038 17.2092 197.761 17.0592C196.766 16.5272 197.603 16.9496 197.384 16.8237C197.162 16.6703 194.241 15.2964 194.068 15.2382C193.485 14.9659 194.092 15.2106 194.031 15.182C193.338 14.8168 189.306 13.2023 188.104 12.7945C188.147 12.8209 190.463 13.6905 189.008 13.1731C187.276 12.5682 187.251 12.497 187.197 12.4715C179.417 9.76664 171.422 7.89948 163.297 6.39874C163.415 6.44407 168.678 7.44818 168.808 7.49768C169.496 7.63396 160.594 5.91256 159.471 5.76061C160.314 5.90957 161.149 6.06168 161.975 6.21687C160.551 6.00493 157.4 5.42277 155.318 5.13575C154.642 5.04113 155.934 5.25213 155.906 5.24971C155.15 5.15155 153.928 4.95969 154.845 5.07096C153.005 4.82425 153.289 4.84173 151.876 4.64406C151.802 4.63418 152.408 4.73434 151.287 4.58976C150.749 4.5171 147.975 4.16329 147.595 4.13645C147.442 4.12379 148.847 4.36745 149.027 4.33055C152.054 4.75121 150 4.42809 151.183 4.58556C151.36 4.61237 150.959 4.58002 153.907 4.98325C153.354 4.95865 149.911 4.44491 149.335 4.38447C148.115 4.23861 153.125 4.92651 154.018 5.02124C153.59 5.00756 154.361 5.07528 155.484 5.24617C156.702 5.43303 156.169 5.36646 156.824 5.4679C158.613 5.75059 157.856 5.59594 159.342 5.87026C157.907 5.53627 161.892 6.28258 163.008 6.52082C161.171 6.19045 159.231 5.86627 157.385 5.57949C157.491 5.60123 157.597 5.62302 157.703 5.64486C157.211 5.56578 156.717 5.48775 156.22 5.4108C156.301 5.4184 156.381 5.42602 156.461 5.43367C153.878 5.06929 153.277 4.9601 153.066 4.92774C150.372 4.54166 147.268 4.15203 144.528 3.84848C144.117 3.80536 144.411 3.85721 141.411 3.5242C140.452 3.4205 141.354 3.48619 140.275 3.38353C138.927 3.31775 138.955 3.27083 138.554 3.23322C137.4 3.12709 136.686 3.08266 136.579 3.07339C135.139 2.95078 133.077 2.78516 131.489 2.6757C131.459 2.67383 132.28 2.75212 131.254 2.67327C130.892 2.64429 127.698 2.33985 124.878 2.22307C125.602 2.26673 126.337 2.31317 127.072 2.36188C126.197 2.28905 120.19 2.02891 121.657 2.12143C122.566 2.17295 124.77 2.22829 125.006 2.29457C123.007 2.12762 111.928 1.80226 111.055 1.81549C110.935 1.81175 111.673 1.80683 111.507 1.80197C111.375 1.79609 108.839 1.7662 108.504 1.75884C108.304 1.75288 109.423 1.75369 109.332 1.74688C109.255 1.73859 106.083 1.70899 105.898 1.73302C106.682 1.72472 108.87 1.74934 107.722 1.7586C107.575 1.75958 106.809 1.74143 106.629 1.74368C104.964 1.7603 109.936 1.78242 110.704 1.80258C109.099 1.79252 107.054 1.77198 104.928 1.76977C102.915 1.76712 100.879 1.78088 99.1191 1.81587C97.6522 1.81941 101.287 1.75904 99.6347 1.7668C96.1848 1.79036 98.7169 1.80511 98.6096 1.80876C97.7502 1.83725 94.8497 1.80776 94.8524 1.88282C93.6143 1.90546 94.0064 1.88345 92.2481 1.94866C92.4797 1.94612 92.7115 1.94377 92.9435 1.94164C90.9903 2.03728 86.8679 2.11113 87.1724 2.09224C88.0064 2.02988 90.1602 1.97644 90.339 1.97019C90.6115 1.96063 91.3477 1.8495 94.342 1.83082C95.5614 1.74148 89.6127 1.94547 92.3162 1.82418C90.4946 1.86784 83.0144 2.19353 81.9196 2.30169C81.7919 2.31301 82.3908 2.32294 80.5432 2.41538C79.667 2.45992 81.7787 2.3237 81.3776 2.33843C80.1348 2.28232 63.3609 3.7897 60.1973 4.32625C59.9932 4.35264 60.0681 4.32748 59.8649 4.35399C59.2318 4.43449 56.9624 4.76498 55.8676 4.91898C58.1627 4.61774 53.6951 5.26038 52.5635 5.44606C50.8571 5.71268 50.9545 5.67313 50.2043 5.79145C47.3261 6.24081 42.9665 7.13974 40.7164 7.56651C40.8595 7.58995 36.8817 8.36826 35.1468 8.80638C33.7243 9.15189 31.7464 9.71249 33.6159 9.25356C31.2416 9.85486 28.7539 10.5632 26.5132 11.2645C26.149 11.3787 26.6443 11.2052 26.025 11.4011C25.9694 11.4192 25.8952 11.4596 25.3705 11.6298C20.9673 13.1076 23.1143 12.369 22.2919 12.6348C21.8486 12.7855 21.4985 12.9098 21.2492 13.0002C23.7611 12.0656 26.7316 11.139 27.5429 10.8981C26.8155 11.0498 21.8823 12.7129 20.4135 13.297C20.3633 13.3155 20.5303 13.2301 20.4794 13.2492C20.4783 13.2496 20.4773 13.25 20.4762 13.2504C19.9386 13.4274 16.5296 14.8408 17.2455 14.5768C17.427 14.5064 19.0018 13.8349 20.8706 13.1406C20.3599 13.3364 20.7506 13.2155 20.6606 13.2502C19.5856 13.6515 16.9232 14.7159 16.0291 15.1285C15.8138 15.2243 15.8359 15.2312 15.8007 15.247C14.9561 15.6295 15.2784 15.4317 14.4564 15.8711C12.9339 16.5269 17.2905 14.5451 16.9625 14.6857C16.602 14.5631 7.31089 19.624 7.58075 19.8915C7.54839 19.9101 7.42409 19.994 7.18239 20.1712C6.61064 20.5327 4.52117 22.4507 4.22272 22.8916C4.16892 22.9555 4.22151 22.9572 4.15468 23.0353C3.93107 23.1565 1.91658 26.0221 1.83364 27.3031C1.98812 26.6545 2.2317 26.0224 2.54441 25.4168C1.6472 27.268 1.74079 28.167 1.69928 28.3344C1.6949 28.5148 1.7114 28.0213 1.86105 27.3726C1.87542 27.308 1.89172 27.2454 1.9072 27.1837C2.14543 26.1586 2.82486 24.977 2.84609 24.9591C2.84462 24.9121 1.62184 27.198 1.72402 28.8936C1.72676 29.9658 1.95046 30.6786 1.81816 30.1839C1.79841 30.1053 1.69038 29.4645 1.69799 28.8936C1.70504 28.1618 1.80753 27.5572 1.69809 28.4249C1.69245 28.4921 1.68064 28.6666 1.68068 28.8936C1.65272 29.5845 1.91079 30.7227 1.94415 30.7964C2.05158 31.1935 1.63147 29.9678 1.64258 28.8936C1.62825 28.099 1.77775 27.426 1.71761 27.6538C1.65937 28.0357 1.62152 28.4542 1.62367 28.8936C1.62461 29.6947 1.77196 30.5408 2.04674 31.3092C2.24359 31.8478 2.33021 31.9532 2.35735 32.0201C2.82684 32.9731 2.54975 32.4469 2.71812 32.766C2.75629 32.9389 4.05658 34.6505 3.77207 34.3513C6.09607 36.9998 6.72467 37.1412 5.95695 36.5579C5.22983 35.919 3.47473 34.2702 2.53244 32.3623C3.08368 33.5695 4.86568 35.6262 5.81014 36.401C6.14774 36.6959 5.96577 36.5161 6.5213 36.9767C7.55807 38.103 14.0085 41.8381 15.8142 42.5069C14.7182 42.0126 15.024 42.1805 15.8734 42.5652C16.7341 42.9482 16.0235 42.5974 16.1927 42.6693C16.3363 42.7616 20.327 44.4126 21.0177 44.6322C17.9917 43.4881 18.6429 43.7737 21.2351 44.7511C20.8522 44.6175 20.4741 44.4829 20.1008 44.3473C21.6274 44.9381 24.8483 46.0662 25.7295 46.3233C25.8682 46.3658 25.3772 46.1889 25.4553 46.2128C26.2131 46.4571 28.9314 47.2908 29.0377 47.3079C29.1423 47.3334 28.0196 46.9881 28.4399 47.103C28.527 47.127 29.6046 47.4705 30.713 47.7685C31.1241 47.8791 30.8818 47.7935 30.9855 47.8209C31.856 48.0474 31.3333 47.9428 32.8842 48.3448C34.0183 48.6346 34.9244 48.8325 36.4812 49.2124C31.2783 47.8973 35.657 49.0132 37.8438 49.4945C38.1892 49.5694 37.9303 49.4857 39.9975 49.9542C35.5338 49.0258 41.2411 50.2739 42.4526 50.5021C42.5154 50.515 42.5452 50.5439 43.1157 50.6587C43.1641 50.6682 43.0967 50.6402 43.6292 50.7445C48.74 51.713 45.4728 51.1025 46.4431 51.302C46.8722 51.3907 49.3298 51.8044 50.0187 51.916C50.1747 51.942 50.0995 51.9455 50.7046 52.0452C51.7705 52.2204 52.7017 52.3505 53.4065 52.458C53.4894 52.4701 53.4841 52.4965 54.8244 52.6892C55.2019 52.7431 55.6283 52.7968 55.0922 52.711C53.3141 52.4301 49.9919 51.9368 48.0177 51.559C46.2093 51.2245 51.9375 52.2135 52.2096 52.2396C52.3175 52.2569 51.2102 52.092 52.3333 52.2737C53.2829 52.4275 55.1058 52.6632 56.5204 52.8723C56.6285 52.889 57.7755 53.0848 57.7229 53.0791C57.6719 53.075 55.9072 52.8332 56.1626 52.8792C56.192 52.8851 57.3127 53.0435 57.4598 53.0709C57.6383 53.1052 58.1126 53.2621 58.3545 53.297C58.9752 53.3864 58.5733 53.3114 58.9758 53.3667C59.86 53.492 62.7932 53.8824 62.9074 53.8611C62.4133 53.8002 61.9213 53.7384 61.4313 53.6755C64.1689 54.0069 63.0075 53.849 63.3961 53.8906C63.8172 53.9333 63.6976 53.9482 64.6269 54.0569C64.8161 54.0851 68.6868 54.491 68.6254 54.4677C66.4691 54.2662 67.2742 54.3121 67.1739 54.302C66.7984 54.2602 66.3179 54.2283 65.8175 54.173C62.3003 53.7754 65.8527 54.1448 65.0226 54.0435C64.7406 54.0093 64.1634 53.9598 64.0395 53.9446C63.6402 53.8956 63.6363 53.8734 63.3703 53.8439C62.7503 53.7747 63.47 53.8904 63.4209 53.8861C62.8611 53.8414 60.7127 53.5524 62.0566 53.6845C61.2535 53.5738 61.1552 53.6017 60.5235 53.5053C59.271 53.3122 61.1512 53.5628 61.6686 53.6199C63.5151 53.8257 64.0878 53.9125 66.6915 54.1891C67.6351 54.2884 68.7658 54.3827 69.2099 54.4252C69.4806 54.454 72.0755 54.7651 72.166 54.664C73.1855 54.7664 74.7768 54.9704 75.8167 55.048C76.7554 55.1182 76.4604 55.0571 76.548 55.0625C76.6821 55.0709 77.8219 55.1589 78.2103 55.1808C78.6637 55.2067 78.442 55.177 79.158 55.2207C80.9265 55.3262 80.8822 55.3583 81.0638 55.3731C83.188 55.5336 82.2618 55.4204 82.7345 55.4447C83.188 55.4799 89.3383 55.8057 90.626 55.8251C90.0993 55.8133 89.5759 55.8004 89.0498 55.7864C89.9876 55.8494 90.9866 55.8463 91.0031 55.8899C91.1955 55.8286 93.145 55.94 93.7358 55.9538C93.968 55.9597 93.95 55.9474 94.2409 55.955C95.3611 55.9862 97.9039 56.0482 98.5211 56.0503C101.175 56.0707 94.397 55.9071 93.8707 55.8746C94.9291 55.9181 100.976 56.0062 98.1949 55.9254C97.7647 55.913 97.0037 55.9291 96.7631 55.9252C95.1353 55.8974 96.4158 55.8979 96.2882 55.8924C96.071 55.8837 95.0016 55.8849 94.7207 55.8739C94.6243 55.8699 95.2406 55.8627 93.6794 55.8183C94.4498 55.823 98.8023 55.935 99.3888 55.9312C99.5917 55.9296 98.3172 55.8702 102.046 55.9562C102.002 55.951 101.959 55.9459 101.916 55.9407C102.916 55.9474 103.92 55.9503 104.928 55.9494C106.015 55.9483 107.099 55.9428 108.178 55.9328C107.953 55.946 106.784 55.9769 108.256 55.961C109.102 55.9506 108.476 55.9314 108.553 55.93C109.307 55.9717 122.779 55.6139 125.373 55.4032C126.255 55.3574 128.739 55.1873 128.922 55.1733C130.031 55.1071 134.042 54.8273 134.822 54.7553C135.314 54.7134 134.844 54.7309 135.284 54.6959C135.692 54.6631 135.271 54.718 135.392 54.7089C136.42 54.654 144.102 53.8858 145.91 53.6682C144.807 53.8049 139.231 54.4143 139.357 54.4062C139.385 54.4062 140.718 54.2927 141.008 54.2554C141.477 54.227 143.059 54.0104 143.914 53.9263C144.01 53.9164 143.637 53.9898 145.157 53.8245C145.685 53.7668 147.084 53.5822 148.469 53.4351C150.491 53.2285 161.027 51.6578 161.737 51.4443C161.76 51.4395 160.283 51.6851 161.277 51.499C162.593 51.2491 161.422 51.5178 162.952 51.2473C163.216 51.2107 167.46 50.3842 167.621 50.3368C168.914 50.0415 165.171 50.7838 165.225 50.7617C165.351 50.7334 168.456 50.1033 168.587 50.072C168.709 50.0493 166.174 50.6226 169.224 49.9676C168.875 50.0365 168.525 50.1048 168.173 50.1725C169.608 49.8626 169.742 49.8603 170.086 49.7882C171.128 49.5667 172.342 49.2497 174.038 48.8999C174.489 48.8066 173.751 49.0018 173.807 48.9904C174.345 48.8823 175.032 48.6598 175.866 48.4906C175.924 48.4764 174.038 48.9886 177.35 48.1363C177.124 48.1919 176.896 48.2472 176.668 48.3021C177.12 48.1873 180.488 47.2617 180.916 47.1281C182.208 46.7557 181.074 47.1204 182.403 46.7195C181.568 46.943 185.498 45.71 185.295 45.7952C185.853 45.5805 189.203 44.4468 190.707 43.8316C191.714 43.4417 193.607 42.6045 193.932 42.4528C194.307 42.2856 194.209 42.3634 194.873 42.0607C195.052 41.9809 197.022 41.0283 198.658 40.117C198.989 39.9363 199.674 39.5832 199.091 39.9417C198.067 40.5808 196.118 41.5292 196.128 41.5492C196.206 41.5625 198.808 40.1726 199.502 39.7288C202.627 37.7774 200.845 38.9283 200.931 38.8997C201.172 38.7879 202.779 37.6308 202.851 37.5564C203.142 37.3486 201.987 38.2472 201.99 38.2523C201.967 38.3111 203.564 37.1235 203.207 37.4039C202.718 37.8284 201.257 38.8227 201.15 38.8837C199.897 39.7274 201.667 38.6293 202.099 38.3257C202.238 38.2347 201.706 38.6269 201.819 38.5487C203.555 37.3175 202.16 38.2445 203.287 37.3773C204.253 36.5895 203.035 37.6308 203.063 37.6011C203.126 37.5662 204.265 36.6162 204.453 36.4387C204.572 36.4363 201.513 38.8972 201.63 38.7764C202.636 38.0764 203.655 37.2832 204.583 36.4117C204.683 36.3844 203.303 37.5494 203.146 37.6548C202.854 37.8957 203.688 37.2513 203.654 37.2867C203.646 37.3072 202.694 38.0985 203.57 37.407C203.845 37.1796 204.511 36.6243 205.465 35.6651C201.945 38.9879 204.394 36.7482 204.549 36.6428C204.663 36.5565 202.919 38.167 205.039 36.227C205.166 36.1867 205.025 36.285 204.422 36.8454C203.654 37.5025 205.484 36.0837 202.626 38.3272C202.857 38.2431 205.07 36.3709 205.15 36.2295C205.247 36.1393 204.794 36.5958 204.963 36.4403C206.904 34.5378 205.584 35.8544 206.151 35.2987C206.23 35.2737 207.788 33.2095 206.605 34.7886C204.294 37.5333 202.859 38.2296 202.458 38.6948C204.694 37.2114 206.825 34.7253 207.226 34.0125C207.9 32.9765 207.222 34.0593 207.306 33.9345C207.35 33.891 207.886 32.9995 207.892 32.9675C208.092 32.6413 207.594 33.7267 206.628 34.9017C205.685 36.0867 204.282 37.2989 203.634 37.8184C204.002 37.5344 204.345 37.2567 204.715 36.9352C204.216 37.3872 203.775 37.7538 203.261 38.1539C205.57 36.2829 203.399 38.0991 202.771 38.6036C202.648 38.7127 204.239 37.4937 202.43 38.8831C203.78 37.8921 203.38 38.2196 204.51 37.2431C204.528 37.3181 201.877 39.4315 200.687 40.1255C204.606 37.4696 202.448 39.041 205.537 36.342C206.053 35.7945 204.67 37.1565 204.765 37.0403C205.181 36.6374 206.209 35.7359 207.118 34.3937C207.26 34.168 206.604 35.0834 207.542 33.7047C207.647 33.5659 208.181 32.6407 208.166 32.6483C208.131 32.7943 207.603 33.7015 207.58 33.7325C207.574 33.7801 208.151 32.764 208.144 32.7491C208.191 32.7338 207.678 33.6203 207.756 33.4889C207.844 33.3856 208.411 32.3466 208.549 31.9808C208.649 31.5797 208.807 32.0205 207.27 34.3276C209.53 30.3228 207.742 33.9395 206.527 35.2589C206.236 35.6017 206.162 35.7131 205.719 36.1816C205.176 36.7573 204.386 37.4413 204.087 37.6893C203.72 37.9775 205.807 36.3745 202.812 38.7224C204.43 37.6324 206.9 35.2389 207.853 33.5392C208.796 31.8303 208.508 32.4444 207.902 33.5497C207.291 34.6451 206.073 35.9945 205.821 36.2388C205.697 36.3701 206.131 35.9445 206.049 36.0313C205.975 36.2303 203.195 38.648 202.84 38.8445C202.554 39.0836 203.945 38.0081 204.023 37.9469C204.132 37.9622 200.512 40.5444 202.479 39.1731C203.892 38.243 206.076 36.1309 206.443 35.7068C204.796 37.5628 202.824 39.0411 200.747 40.3513C201.907 39.6463 202.994 38.9118 204.063 38.0634C201.919 39.8054 199.84 41.014 197.576 42.231C203.085 39.2695 195.797 43.2895 195.705 43.2208C195.672 43.2534 197.913 42.1948 198.252 42.0052C196.349 43.1428 190.295 45.6753 193.847 44.2301C193.222 44.495 191.642 45.1783 191.658 45.171C191.906 45.1237 195.263 43.6472 194.733 43.8961C194.065 44.2287 193.215 44.5603 192.195 44.9816C187.055 46.9997 188.507 46.6131 183.24 48.2786C183.347 48.2509 183.454 48.223 183.561 48.1952C177.79 49.9617 171.954 51.3289 166.072 52.4719C163.757 52.987 157.655 54.0606 154.583 54.484C153.988 54.5747 150.984 54.9665 150.748 54.9897C150.326 55.0394 152.645 54.7249 151.596 54.8524C151.358 54.893 146.298 55.515 146.652 55.4878C147.229 55.4243 149.008 55.1934 149.296 55.1611C151.371 55.0135 135.65 56.6901 134.858 56.6723C135.206 56.6519 135.553 56.6311 135.899 56.6098C134.914 56.6884 133.924 56.7631 132.927 56.834ZM177.694 47.9494C178.232 47.784 179.723 47.3945 180.548 47.1487C181.676 46.8203 183.669 46.1091 182.833 46.4611C181.096 47.0011 179.432 47.4803 177.694 47.9494ZM152.101 52.8925C153.287 52.7402 152.379 52.9197 151.398 53.031C151.289 53.043 150.489 53.0952 152.101 52.8925ZM164.498 50.9032C164.449 50.9136 163.424 51.1036 163.387 51.1091C162.464 51.2606 165.553 50.6872 164.498 50.9032ZM104.071 55.99C105.399 55.9894 104.437 55.9432 103.612 55.9595C103.561 55.9605 103.984 55.99 104.071 55.99ZM105.016 55.9922C106.05 56.0344 108.118 55.9385 106.472 55.9552C106.313 55.9573 104.969 55.9907 105.016 55.9922ZM156.33 52.2966C156.2 52.3332 154.971 52.5119 154.439 52.585C154.453 52.5691 155.82 52.378 156.33 52.2966ZM125.143 55.4355C125.075 55.4574 129.399 55.2026 129.677 55.1611C129.014 55.2176 125.176 55.4272 125.143 55.4355ZM114.128 55.8746C114.238 55.8749 115.712 55.8333 115.672 55.8228C114.949 55.8291 113.639 55.8764 114.128 55.8746ZM92.1975 55.774C92.1179 55.773 93.2237 55.884 90.5948 55.7444C90.2092 55.7237 91.5879 55.7556 91.4513 55.7478C91.1638 55.7329 90.9369 55.7224 90.7547 55.7153C91.9778 55.7549 93.2583 55.7907 93.3822 55.7985C93.963 55.8361 92.2322 55.7749 92.1975 55.774ZM80.7024 55.2687C80.4463 55.2646 78.856 55.1515 78.4774 55.119C78.4142 55.1136 78.6921 55.1037 77.9621 55.0535C77.377 55.0127 78.2478 55.1076 77.1101 55.0186C75.9625 54.9271 77.4977 55.021 77.398 55.0116C77.2619 55.0006 75.4894 54.8779 75.5471 54.8636C75.5875 54.8548 77.485 55.0094 77.9597 55.0394C78.5654 55.0791 77.832 55.0052 78.8451 55.0813C79.477 55.1281 79.1232 55.1423 79.2562 55.1534C79.3648 55.1641 81.5681 55.2849 80.699 55.2684C80.7001 55.2685 80.7013 55.2686 80.7024 55.2687ZM90.4239 55.7047C90.5159 55.7068 90.6239 55.7102 90.7547 55.7153C90.6437 55.7117 90.5331 55.7082 90.4239 55.7047ZM174.346 48.8168C173.738 48.9524 175.536 48.5 176.22 48.3382C176.244 48.3478 174.425 48.802 174.346 48.8168ZM89.2912 55.6918C87.4587 55.6046 88.8196 55.6523 90.4239 55.7047C89.9115 55.6925 89.8988 55.7196 89.2912 55.6918ZM141.008 54.2554C140.931 54.2603 140.882 54.2606 140.875 54.2539C141.078 54.2417 141.097 54.2442 141.008 54.2554ZM136.777 54.6368C135.317 54.7859 138.286 54.527 138.261 54.5102C138.253 54.5056 136.837 54.6315 136.777 54.6368ZM102.372 55.9804C102.506 55.983 100.431 56.0392 103.444 56.0051C101.835 55.9896 103.532 55.9905 103.508 55.984C103.44 55.9687 100.742 55.9667 100.15 55.9494C99.6836 55.9752 101.93 55.9722 102.369 55.9804C102.37 55.9804 102.371 55.9804 102.372 55.9804ZM60.0793 53.2803C60.439 53.3092 61.5791 53.4596 62.3569 53.5544C61.9911 53.5286 60.8449 53.381 60.0793 53.2803ZM130.264 2.61076C124.924 2.28606 124.213 2.18523 129.124 2.5079C129.22 2.51403 130.588 2.62484 130.264 2.61076ZM84.2647 2.30698C83.7621 2.30247 85.4182 2.20633 86.5171 2.1676C86.7654 2.15846 87.686 2.1476 86.6371 2.20339C86.6681 2.16269 85.0483 2.22756 84.2647 2.30698ZM88.256 55.6687C87.7206 55.6675 86.0857 55.576 85.2306 55.5276C85.7529 55.5382 87.4899 55.6299 88.256 55.6687ZM112.668 1.81043C112.102 1.79681 111.718 1.8181 111.816 1.82207C112.255 1.83999 113.311 1.83921 112.668 1.81043ZM93.53 55.864C93.6032 55.8802 91.4332 55.8231 91.2857 55.7849C91.7463 55.8046 93.4753 55.8553 93.53 55.864ZM61.5303 53.4738C61.8578 53.5216 60.151 53.3194 59.623 53.2423C59.6788 53.2371 61.309 53.4433 61.5303 53.4738ZM103.552 1.7457C103.043 1.74446 101.779 1.7523 101.639 1.76512C101.465 1.77973 103.319 1.7626 103.552 1.7457ZM195.807 16.1873C195.873 16.2194 194.114 15.4178 193.312 15.0651C191.827 14.3852 195.788 16.1363 195.807 16.1873ZM118.018 1.93975C119.611 2.02157 117.842 1.93416 117.911 1.96472C118.988 1.99955 121.639 2.1085 119.815 2.00863C119.46 1.98933 118.519 1.9582 118.018 1.93975ZM116.542 1.88336C116.371 1.88688 115.212 1.88241 116.213 1.90891C116.675 1.92132 117.419 1.91304 116.542 1.88336ZM184.611 11.7795C183.262 11.2893 189.452 13.4035 189.614 13.5254C189.705 13.5626 189.765 13.5877 189.798 13.6025C190.027 13.6793 191.145 14.1192 191.285 14.1998C190.922 14.0491 190.019 13.6975 189.905 13.6527C189.859 13.6339 189.824 13.6197 189.801 13.6096C189.398 13.4411 184.886 11.8464 184.611 11.7795ZM174.191 8.84231C175.783 9.1922 176.063 9.33366 175.922 9.29853C174.174 8.88698 175.321 9.12728 175.269 9.11162C175.141 9.07494 173.916 8.79835 174.196 8.8435C174.194 8.8431 174.193 8.84271 174.191 8.84231ZM182.505 11.1095C182.574 11.1276 183.882 11.5351 183.932 11.5537C184.998 11.9059 181.292 10.754 182.505 11.1095ZM72.0505 54.6461C71.0707 54.551 72.0331 54.6164 72.6869 54.6819C72.7408 54.6873 72.9167 54.7288 72.0505 54.6461ZM115.752 1.86659C115.532 1.84511 109.69 1.71543 110.039 1.76353C110.548 1.75145 117.159 1.92505 115.752 1.86659ZM72.1644 3.12912C73.1929 3.03818 72.0734 3.16912 71.5264 3.20745C71.3234 3.22153 71.9053 3.15211 72.1644 3.12912ZM96.4439 55.9679C97.5122 55.9726 97.2899 56.0277 96.3648 55.9875C96.3285 55.9859 96.402 55.9677 96.4439 55.9679ZM80.3649 2.51396C76.8345 2.77799 77.6647 2.60011 82.2627 2.34674C82.1184 2.35996 81.9743 2.37326 81.8302 2.38664C87.1744 2.09468 82.1874 2.36506 80.8933 2.45817C80.4001 2.49203 80.8146 2.48239 80.3683 2.51385C80.3672 2.51389 80.3661 2.51392 80.3649 2.51396ZM66.778 3.65459C63.3715 3.94884 69.8842 3.29024 71.7292 3.13148C69.9245 3.32566 67.6007 3.5518 70.7762 3.27584C66.1113 3.73497 68.0422 3.52504 67.8592 3.5373C67.6367 3.55727 66.9228 3.6421 66.778 3.65459ZM75.7563 2.82466C75.9514 2.80642 77.4371 2.70784 77.976 2.66747C77.2214 2.74372 74.4542 2.94193 75.7563 2.82466ZM163.055 6.51498C163.181 6.51869 163.493 6.55866 164.649 6.78474C164.29 6.72635 163.547 6.59591 163.055 6.51498ZM178.808 47.7552C179.603 47.5421 181.134 47.1087 180.659 47.2239C180.613 47.2385 178.813 47.7449 178.808 47.7552ZM98.7945 1.74868C98.6152 1.74291 94.1726 1.8399 95.7071 1.82692C96.1637 1.81699 100.228 1.74598 98.7945 1.74868ZM121.85 2.07273C121.474 2.05501 119.961 1.99693 119.932 2.00105C119.826 2.01187 121.684 2.07939 121.85 2.07273ZM182.728 46.6438C182.842 46.6171 185.162 45.8764 184.899 45.9473C184.427 46.0882 182.38 46.7454 182.728 46.6438ZM68.4879 54.352C68.2807 54.3318 68.0096 54.2828 67.9382 54.2752C67.7617 54.2623 64.0215 53.8603 65.4523 53.9904C65.6794 54.0224 71.1059 54.5845 71.8034 54.638C72.0712 54.6927 69.7659 54.4513 69.2109 54.397C69.1108 54.3876 69.0436 54.4058 68.4897 54.352C68.4891 54.352 68.4885 54.352 68.4879 54.352ZM169.07 7.67855C169.23 7.68067 173.578 8.64739 173.512 8.66722C172.044 8.32142 170.538 7.98694 169.07 7.67855ZM166.848 7.217C165.924 7.01839 168.109 7.45164 168.75 7.59599C168.76 7.60874 166.979 7.24313 166.848 7.217ZM113.424 1.72656C112.978 1.72112 114.349 1.77878 114.042 1.77717C113.846 1.7755 112.849 1.74375 112.53 1.74631C112.44 1.74699 113.458 1.79295 113.751 1.79891C114.168 1.80705 113.764 1.77774 114.219 1.78832C115.72 1.82386 117.086 1.87878 118.501 1.9281C118.629 1.9325 117.636 1.88369 118.729 1.92226C118.9 1.92849 119.903 1.98469 121.216 2.03732C124.122 2.09924 126.231 2.26832 129.892 2.48428C129.759 2.46667 127.021 2.27989 126.855 2.27233C123.796 2.07531 118.311 1.84309 115.085 1.76771C114.265 1.74664 114.662 1.7706 114.309 1.76238C114.029 1.75622 114.363 1.73803 113.424 1.72656ZM178.391 47.883C178.779 47.8059 180.088 47.4278 180.903 47.1914C180.612 47.2535 179.226 47.6656 178.391 47.883ZM147.167 4.09125C146.738 4.03975 145.393 3.87601 145.281 3.87169C145.137 3.86397 147.077 4.09616 147.167 4.09125ZM47.3832 51.43C47.3473 51.4249 46.3183 51.2359 46.2775 51.227C45.3647 51.0398 48.4367 51.6032 47.3832 51.43ZM23.2721 45.4085C22.5239 45.1552 21.8112 44.9069 21.5497 44.7896C22.0318 44.9714 23.3555 45.4237 23.2721 45.4085ZM3.01351 24.6664C2.87157 24.7655 4.19878 22.9601 4.54507 22.6631C4.39886 22.7751 3.04278 24.5603 3.01351 24.6664ZM162.901 6.40088C164.346 6.66732 164.048 6.57209 164.953 6.76242C165.099 6.79429 165.566 6.96712 163.996 6.63879C163.711 6.58066 164.834 6.76588 162.901 6.40088ZM83.0162 2.3032C83.3885 2.26343 84.5433 2.20422 85.3177 2.16627C85.1439 2.18771 83.5795 2.26832 83.0162 2.3032ZM186.96 45.2865C187.583 45.1122 190.553 43.9756 189.809 44.236C189.719 44.2769 187.358 45.1587 186.96 45.2865ZM84.5615 55.5709C83.2747 55.5213 85.9368 55.6716 86.7885 55.6899C86.4033 55.6741 84.6471 55.5751 84.5615 55.5709ZM2.32834 31.8459C2.28593 31.8091 1.88196 30.604 1.89597 30.5492C1.80093 30.0531 1.90916 30.6577 2.11329 31.247C2.31272 31.8318 2.57737 32.3674 2.32834 31.8459ZM31.0796 47.8316C30.5716 47.7193 27.4971 46.8201 26.7846 46.572C27.4832 46.783 31.6561 47.979 31.0796 47.8316ZM157.019 5.41928C158.039 5.5782 158.997 5.73931 159.948 5.907C159.739 5.88185 157.125 5.44296 157.019 5.41928ZM1.86105 27.3726C1.87542 27.308 1.89172 27.2454 1.9072 27.1837C1.89065 27.248 1.87523 27.311 1.86105 27.3726ZM133.965 2.74861C133.1 2.67592 133.277 2.71541 133.331 2.72011C133.982 2.77791 134.942 2.83208 133.965 2.74861ZM179.369 47.654C179.672 47.5949 181.059 47.1843 181.855 46.9507C181.612 47.0066 180.033 47.4704 179.369 47.654ZM63.1378 4.01728C62.0512 4.1176 66.4593 3.57774 67.393 3.5054C67.4558 3.50774 63.3103 3.99307 63.1378 4.01728ZM88.5815 55.7981C88.675 55.8211 90.5284 55.8732 90.1351 55.849C89.8868 55.8348 88.5328 55.7855 88.5815 55.7981ZM69.6258 3.29052C70.0364 3.24465 71.0029 3.17138 70.6643 3.21403C70.2292 3.26852 69.5194 3.30238 69.6258 3.29052ZM107.048 1.62413C106.866 1.61853 104.399 1.63275 105.419 1.65241C106.126 1.66611 106.238 1.64126 106.404 1.64169C106.592 1.63947 110.53 1.70178 107.048 1.62413ZM38.6271 8.08925C39.5319 7.87933 40.6028 7.65612 41.5603 7.45677C41.1642 7.5471 39.0229 8.01217 38.6271 8.08925ZM81.3879 55.4257C81.6157 55.4584 87.7277 55.7899 84.2645 55.5831C84.0639 55.5749 80.7031 55.3635 81.3879 55.4257ZM162.901 6.40088C162.723 6.36841 162.518 6.33048 162.279 6.28601C162.516 6.32913 162.722 6.36749 162.901 6.40088ZM146.589 3.97797C146.929 4.00451 145.227 3.80185 144.748 3.75664C144.588 3.75334 146.542 3.9727 146.589 3.97797ZM41.6291 7.42403C42.1786 7.30185 43.1821 7.10669 43.8472 6.97577C43.7414 7.0067 41.8728 7.38354 41.6291 7.42403ZM5.70685 21.4366C6.50936 20.7089 7.57014 19.9186 7.59189 19.8862C7.61165 19.8744 7.65906 19.8424 7.72711 19.7957C7.79069 19.7468 8.7213 19.0811 9.16949 18.8025C10.4866 17.9959 7.94199 19.5154 6.25634 20.9708C5.39178 21.6972 4.76731 22.3523 4.67299 22.4425C4.60087 22.5355 4.96204 22.0083 6.59345 20.6401C6.29315 20.8967 6.00879 21.1512 5.70685 21.4366ZM35.333 48.9644C35.9238 49.1295 37.6429 49.5074 37.2002 49.3966C36.8836 49.322 34.7338 48.8013 35.333 48.9644ZM12.6215 41.0105C12.7775 41.1044 14.3314 41.8682 14.3622 41.8659C13.5039 41.4508 11.8707 40.5964 12.6215 41.0105ZM40.026 50.0631C40.4079 50.1486 40.9065 50.2245 40.8614 50.2137C40.4698 50.1208 39.3873 49.9082 40.026 50.0631ZM159.962 5.80712C159.371 5.69709 157.531 5.42022 157.127 5.37783C157.053 5.36248 156.852 5.32601 156.482 5.26302C156.483 5.26319 156.485 5.26337 156.486 5.26354C155.971 5.0941 140.987 3.18031 151.043 4.50117C151.36 4.54519 150.932 4.46855 152.216 4.64743C152.3 4.65936 152.341 4.67897 152.602 4.71599C153.193 4.79467 156.409 5.27864 157.048 5.37291C157.053 5.37632 157.094 5.38524 157.182 5.4013C157.954 5.53939 160.412 5.88791 159.962 5.80712ZM9.70929 39.3462C9.98094 39.5275 10.9147 40.0761 11.0249 40.1217C10.5369 39.8461 9.0642 38.9272 9.70929 39.3462ZM81.5745 55.4881C82.277 55.5431 84.0765 55.626 83.5337 55.585C83.1979 55.5621 80.7617 55.4267 81.5745 55.4881ZM19.4722 44.0956C15.7335 42.5688 18.5769 43.7385 17.9969 43.5235C18.4873 43.7192 18.9994 43.9177 19.4722 44.0956ZM178.223 9.76799C177.614 9.60102 178.336 9.75508 179.032 9.96668C179.248 10.0325 178.573 9.86406 178.223 9.76799ZM204.319 21.5698C203.976 21.1748 205.776 22.9993 205.058 22.3033C205.035 22.2709 204.355 21.5965 204.319 21.5698ZM186.617 12.2918C186.2 12.1723 185.923 12.0762 184.748 11.6878C186.491 12.2552 184.89 11.7008 186.617 12.2918ZM7.58075 19.8915C7.58706 19.888 7.59235 19.8848 7.59189 19.8862C7.58495 19.8903 7.58169 19.8918 7.58075 19.8915ZM43.7513 50.8258C44.2373 50.9415 45.6344 51.2058 45.2219 51.1085C45.1805 51.0998 43.9538 50.8529 43.7513 50.8258ZM157.127 5.37783C157.193 5.39147 157.159 5.38824 157.048 5.37291C157.044 5.36969 157.072 5.37187 157.127 5.37783ZM36.3044 49.2292C36.3588 49.2312 34.2718 48.7174 34.1791 48.6923C32.9587 48.4092 35.4642 49.0361 36.3044 49.2292ZM95.8559 56.112C95.9671 56.1133 95.2512 56.0613 94.8128 56.0635C94.4732 56.0654 95.4391 56.1081 95.8559 56.112ZM190.525 13.717C191.137 13.9558 192.062 14.3372 192.21 14.4183C191.794 14.2376 190.494 13.7156 190.525 13.717ZM203.562 20.8716C202.966 20.3781 201.523 19.3039 200.516 18.6679C200.546 18.6229 203.035 20.3739 203.562 20.8716ZM161.788 6.13221C161.736 6.12042 160.047 5.82121 160.274 5.87849C160.612 5.95996 162.261 6.2247 161.788 6.13221ZM92.5231 56.0011C91.7537 55.9882 93.522 56.0825 94.3391 56.0753C94.7582 56.0731 92.651 56.0047 92.5231 56.0011ZM48.0998 51.6611C49.0858 51.8253 46.6603 51.3779 46.2894 51.3243C46.762 51.4136 47.7451 51.6026 48.0998 51.6611ZM15.1281 42.3015C18.0152 43.6614 16.4754 42.8604 15.9537 42.6407C15.8766 42.6091 15.0562 42.2681 15.1281 42.3015ZM194.307 42.481C194.72 42.2874 193.159 42.9626 192.983 43.0513C192.865 43.1164 194.037 42.6134 194.307 42.481ZM21.2492 13.0002C21.1214 13.0473 20.9951 13.0942 20.8706 13.1406C20.9637 13.1051 21.0867 13.0592 21.2492 13.0002ZM57.1644 53.1604C54.9669 52.7753 55.1862 52.858 54.9922 52.8306C54.57 52.7676 53.5972 52.601 52.8145 52.4813C53.7117 52.6134 54.6213 52.7426 55.5314 52.867C54.7938 52.7741 48.647 51.7534 48.5158 51.7239C48.326 51.7096 50.2671 52.037 50.3275 52.0466C50.4091 52.0624 50.7074 52.1599 50.8895 52.1916C51.1652 52.253 56.3568 53.0499 57.1644 53.1604ZM21.27 44.8219C20.7851 44.6377 20.6567 44.5686 20.4325 44.4891C20.3565 44.4619 20.3374 44.4741 20.079 44.3805C20.4706 44.5287 20.8676 44.6759 21.27 44.8219ZM61.163 53.6233C61.7882 53.7257 58.9757 53.3578 58.8752 53.3385C58.3916 53.2601 60.6608 53.545 61.163 53.6233ZM37.3475 49.49C37.4452 49.5173 39.6004 50.0076 39.5729 49.9863C39.0339 49.8655 36.1414 49.1952 37.3475 49.49ZM19.7631 44.2604C19.0765 43.9971 17.7084 43.4154 17.8597 43.5054C17.8607 43.5059 17.8618 43.5063 17.8629 43.5067C18.4984 43.7681 19.1433 44.0233 19.7631 44.2604ZM89.8986 55.9648C91.3166 56.0613 90.6443 55.9832 89.3909 55.9195C89.0106 55.9233 89.6664 55.9489 89.8986 55.9648ZM94.4631 56.1473C94.851 56.1712 98.941 56.2452 98.319 56.2083C98.0948 56.1983 95.7438 56.1703 95.6377 56.1644C95.4744 56.158 96.2214 56.1515 94.9732 56.1255C95.0457 56.136 94.3281 56.1412 94.4631 56.1473ZM91.0731 56.0363C92.487 56.1186 92.8096 56.0673 91.7429 56.032C91.3266 56.0177 90.8716 56.0243 91.0731 56.0363ZM85.2911 55.7786C85.7975 55.8109 87.1524 55.8857 88.094 55.9063C86.8363 55.8494 85.5862 55.7864 84.3441 55.7175C84.2002 55.721 84.8474 55.7509 85.2945 55.7788C85.2934 55.7787 85.2923 55.7787 85.2911 55.7786ZM208.238 27.3598C208.124 26.8489 208.223 27.1757 208.313 27.6541C208.407 28.1374 208.426 28.77 208.421 28.8217C208.422 29.1263 208.365 27.8161 208.238 27.3598ZM202.182 38.6829C202.43 38.5121 202.613 38.4136 203.162 37.9755C202.583 38.404 202.042 38.771 201.454 39.1482C201.025 39.4816 201.913 38.8714 202.182 38.6829ZM204.338 37.1638C204.267 37.2219 204.702 36.943 203.728 37.7049C203.079 38.2836 206.561 35.142 206.94 34.3841C206.431 35.1497 205.009 36.6016 204.338 37.1638ZM209.024 30.5334C209.083 30.4832 208.548 32.2449 208.419 32.4055C208.175 32.9009 208.364 32.5208 208.577 31.9801C208.802 31.4272 208.988 30.6744 209.024 30.5334ZM206.315 35.5485C206.886 34.9153 205.638 36.3496 205.231 36.6912C205.194 36.7284 206.23 35.6664 206.315 35.5485ZM201.878 18.3542C201.146 17.8112 200.39 17.4326 201.594 18.1966C201.65 18.2331 201.909 18.3775 201.878 18.3542ZM208.544 32.2477C208.195 33.0254 208.95 31.2878 209.032 30.7169C209.085 30.6686 208.621 32.1547 208.544 32.2477ZM201.394 17.9173C200.377 17.2277 200.704 17.5574 200.819 17.6314C201.37 17.977 203.087 19.1348 203.456 19.4332C200.886 17.5536 201.853 18.2627 201.394 17.9173ZM196.535 15.2305C195.534 14.7432 198.105 16.0467 198.557 16.289C198.093 16.0286 196.836 15.3716 196.535 15.2305ZM190.384 12.5184C189.847 12.3023 188.132 11.6664 187.873 11.595C188.461 11.7948 190.162 12.4449 190.384 12.5184ZM189.133 11.9985C188.248 11.6529 188.011 11.6313 189.048 11.9901C189.088 12.0041 189.165 12.0116 189.133 11.9985ZM184.18 10.2882C183.607 10.083 182.919 9.93196 183.867 10.2272C184.146 10.3151 184.24 10.3102 184.18 10.2882ZM200.176 17.0315C199.425 16.5702 198.396 16.0296 200.042 16.9927C199.475 16.661 198.863 16.3218 198.304 16.0272C200.448 17.2402 200.308 17.144 200.896 17.5021C201.741 18.0456 201.647 18.0515 201.47 17.9499C202.18 18.3459 205.002 20.3918 206.322 21.938C205.174 20.591 202.898 18.7726 201.452 17.8476C201.018 17.5603 200.63 17.3338 200.271 17.1143C199.696 16.7661 200.218 17.0574 200.179 17.0333C200.178 17.0327 200.177 17.0321 200.176 17.0315ZM177.559 8.3854C175.832 7.91112 176.92 8.24895 177.893 8.49475C177.935 8.5049 177.602 8.3972 177.559 8.3854ZM209.366 29.9028C209.165 31.1601 209.041 31.2989 208.877 31.7964C208.671 32.2488 208.495 33.1579 206.909 35.2148C208.197 33.4588 206.962 35.122 207.207 34.7721C207.428 34.4869 208.117 33.4233 207.699 34.0319C207.973 33.6479 208.665 32.5095 209.01 31.3281C209.38 30.1644 209.38 29.0035 209.38 28.9128C209.38 28.9146 209.38 28.9164 209.38 28.9182C209.375 28.8011 209.465 29.0939 209.366 29.9028ZM190.43 12.3741C189.897 12.095 189.645 12.1142 188.531 11.6476C187.025 11.1728 192.618 13.1702 193.23 13.5697C187.271 11.0881 197.089 15.2823 193.026 13.443C196.386 14.9595 194.138 13.9172 194.665 14.1332C195.255 14.3742 197.083 15.2859 197.021 15.2327C197.02 15.2321 197.019 15.2316 197.017 15.2311C195.878 14.6573 194.695 14.1113 193.532 13.61C194.637 14.1522 192.296 13.1118 191.446 12.7354C191.105 12.6115 190.773 12.4936 190.43 12.3741ZM197.034 15.3361C196.895 15.2467 194.429 14.0884 194.562 14.1736C194.926 14.3116 198.456 16.0697 197.034 15.3361ZM206.941 22.6083C206.307 21.7963 205.194 20.7074 204.741 20.3493C205.531 21.0247 206.589 22.1798 206.941 22.6083ZM159.588 4.56148C158.327 4.36656 162.196 5.0265 161.081 4.81639C161.028 4.80529 159.652 4.57031 159.588 4.56148ZM187.708 11.3839C186.502 10.9424 187.059 11.2048 187.955 11.5018C188.006 11.519 187.763 11.4044 187.708 11.3839ZM208.881 31.9C208.876 31.9416 208.55 32.8248 208.024 33.6792C207.519 34.5297 206.832 35.3506 206.627 35.5842C206.738 35.4462 207.455 34.5988 207.992 33.6958C208.549 32.7935 208.891 31.846 208.881 31.9ZM208.039 24.0541C207.03 22.1955 204.93 20.4155 204.677 20.2071C204.446 20.0046 204.828 20.3013 204.775 20.2552C204.697 20.1199 202.164 18.1848 202.024 18.1402C201.933 18.0797 202.385 18.4327 201.838 18.0746C202.985 18.5987 207.307 22.629 207.309 23.0114C207.382 23.1062 207.155 22.7872 207.122 22.7357C207.072 22.6823 207.295 22.8548 208.037 24.0511C208.038 24.0521 208.038 24.0531 208.039 24.0541ZM204.12 19.7251C204.732 20.2404 202.972 18.8189 202.545 18.5389C201.588 17.8336 204.068 19.6303 204.12 19.7251ZM199.734 16.7014C199.503 16.5459 197.541 15.4742 197.343 15.4051C198.297 15.9027 200.225 16.9933 199.734 16.7014ZM176.226 7.92041C175.647 7.77413 174.089 7.38224 174 7.37811C174.555 7.5057 176.134 7.91097 176.226 7.92041ZM200.641 40.6198C201.471 40.122 199.568 41.3066 198.944 41.6283C198.914 41.644 200.588 40.6643 200.641 40.6198ZM187.551 11.1762C187.237 11.0065 180.469 8.90368 179.494 8.69429C180.445 8.91732 187.143 11.0079 187.438 11.1585C187.525 11.1873 187.592 11.1914 187.551 11.1762ZM201.487 17.6613C202.063 18.0115 202.392 18.2783 202.46 18.3255C203.097 18.7568 204.475 19.8602 204.156 19.634C203.041 18.6553 200.355 16.9828 201.487 17.6613ZM175.758 7.69936C173.393 7.1198 177.917 8.27377 177.319 8.10556C177.284 8.09377 176.005 7.75857 175.758 7.69936ZM188.289 11.4302C188.846 11.5391 195.417 14.216 196.403 14.8039C195.499 14.4004 194.705 14.0014 193.474 13.4705C193.137 13.3263 193.221 13.3777 193.185 13.3621C192.597 13.1134 193.044 13.2852 192.679 13.1317C192.443 12.9904 187.582 11.1783 188.289 11.4302ZM201.815 17.8594C202.194 17.9931 205.742 20.8234 205.802 21.0377C206.265 21.5318 205.453 20.6601 204.365 19.7592C203.292 18.8549 201.964 17.9592 201.815 17.8594ZM187.695 11.1886C188.395 11.377 191.745 12.6742 189.46 11.8327C189.243 11.7527 188.311 11.3941 187.695 11.1886ZM176.019 7.72682C175.892 7.68907 173.476 7.09552 173.427 7.10093C173.769 7.17585 177.328 8.06615 176.019 7.72682ZM177.291 8.00897C177.232 7.99437 177.796 8.16319 176.659 7.86778C176.563 7.84416 176.397 7.76886 174.941 7.4213C174.655 7.3533 174.204 7.26313 174.236 7.27197C175.73 7.65598 180.208 8.76373 177.291 8.00897ZM201.896 17.8878C201.698 17.7423 202.212 18.0426 202.624 18.3565C202.798 18.4912 202.459 18.2661 201.896 17.8878ZM168.274 5.95143C169.706 6.22177 165.228 5.30965 164.997 5.28315C165.147 5.31924 168.113 5.91486 168.274 5.95143ZM198.721 41.9157C198.722 41.9151 198.723 41.9146 198.724 41.914C197.649 42.4908 198.305 42.1161 198.256 42.1431C195.884 43.3518 196.529 43.0328 196.165 43.2249C195.38 43.609 195.498 43.5121 194.123 44.1486C196.387 43.0942 194.327 44.0437 194.248 44.0572C193.995 44.1126 197.24 42.723 198.318 42.0924C198.471 42.0114 197.342 42.5809 197.728 42.3714C198.948 41.7499 202.88 39.5157 198.721 41.9157ZM202.948 18.5859C203.516 18.847 206.75 21.8567 205.873 21.0778C205.815 20.8702 202.259 18.0517 202.948 18.5859ZM7.01792 18.4702C7.86113 17.8403 5.85113 19.267 5.52822 19.5871C5.34455 19.7369 6.64732 18.7291 7.01792 18.4702ZM1.4253 33.637C2.07113 34.7494 3.03763 35.8056 2.04021 34.4901C1.92868 34.3509 1.35393 33.5074 1.4253 33.637ZM68.4305 1.8524C67.1422 1.95787 67.2246 1.99756 68.1671 1.90026C68.5005 1.86626 68.4713 1.84915 68.4305 1.8524ZM20.4558 11.699C20.327 11.7417 18.9384 12.2749 18.9971 12.2665C19.4966 12.073 21.253 11.416 20.4558 11.699ZM68.8392 1.80478C68.0766 1.88966 69.3936 1.79104 70.3058 1.67175C69.8366 1.71858 68.9241 1.79522 68.8392 1.80478ZM185.194 10.2358C184.6 10.0608 182.859 9.51138 181.854 9.22333C181.736 9.15584 184.521 10.0124 185.194 10.2358ZM0.141691 28.16C0.110143 28.8011 0.128943 28.4342 0.183131 27.943C0.236116 27.4479 0.377288 26.8491 0.337988 26.9678C0.313156 26.9929 0.127205 28.1072 0.141691 28.16ZM109.792 0.104556C108.947 0.108178 111.632 0.16499 110.893 0.12852C110.855 0.126548 109.836 0.103943 109.792 0.104556ZM121.516 0.436669C120.861 0.400656 118.151 0.301662 119.207 0.355525C119.373 0.362374 121.46 0.44662 121.516 0.436669ZM196.108 43.2724C196.438 43.1478 194.605 44.0039 194.316 44.1182C194.215 44.1652 195.699 43.4388 196.108 43.2724ZM60.146 2.79459C59.4967 2.87956 57.7627 3.10605 57.4695 3.16145C58.2715 3.04556 60.3759 2.7911 60.146 2.79459ZM2.27718 22.9056C1.56786 23.742 0.773386 25.4336 1.00966 25.0351C1.99391 23.2013 0.753766 25.174 2.27718 22.9056ZM73.0923 1.37998C72.5577 1.42394 72.1534 1.49549 72.2136 1.49175C72.7912 1.45595 73.6248 1.34804 73.0923 1.37998ZM33.6129 7.66975C33.5749 7.6616 31.9235 8.0954 32.1481 8.04818C32.2177 8.03156 33.6373 7.6746 33.6129 7.66975ZM163.433 4.90869C162.655 4.75178 165.042 5.17621 165.725 5.32847C166.062 5.41449 163.539 4.92584 163.433 4.90869ZM87.8311 0.431429C87.9074 0.403649 85.2416 0.543873 86.2927 0.511777C86.555 0.503056 87.803 0.43967 87.8311 0.431429ZM113.386 0.120056C111.596 0.0978716 119.107 0.317549 117.134 0.231732C116.987 0.220943 113.541 0.117366 113.386 0.120056ZM125.645 0.599915C125.342 0.581017 125.485 0.511803 126.773 0.613888C126.941 0.627178 126.151 0.602156 126.289 0.61455C126.373 0.619264 129.154 0.797046 129.278 0.805969C129.415 0.81283 129.255 0.778451 129.394 0.784749C129.553 0.791258 131.243 0.925035 132.15 0.992367C133.841 1.11693 134.019 1.11427 134.157 1.12435C134.559 1.15577 135.228 1.2232 136.04 1.29141C140.165 1.62392 146.435 2.28389 149.662 2.75376C146.793 2.36967 144.037 2.07565 141.14 1.79183C141.975 1.82763 136.918 1.42028 139.88 1.65257C138.515 1.47742 126.676 0.615077 125.648 0.6001C125.647 0.600039 125.646 0.599977 125.645 0.599915ZM4.66611 37.5488C4.03741 37.0847 7.15759 39.647 7.45829 39.7312C7.03087 39.4783 4.73515 37.662 4.66611 37.5488ZM3.916 20.8609C4.16981 20.6204 4.41362 20.2388 5.9146 19.0685C5.91601 19.0674 5.91741 19.0663 5.91882 19.0652C6.3774 18.7172 5.86711 19.1299 5.95328 19.0685C5.97375 19.0433 7.45137 17.9733 6.24322 18.8826C4.48914 20.2884 6.03862 18.9825 5.127 19.7348C4.99352 19.8094 3.35709 21.4171 3.47463 21.3419C3.49231 21.3203 3.9506 20.8441 4.03872 20.7659C4.35277 20.4758 4.21442 20.6318 4.25826 20.5905C4.37488 20.3919 7.16961 18.1183 7.62021 17.9083C7.71594 17.6958 3.15156 21.4596 3.11533 21.7972C3.01479 21.9075 3.0235 21.8317 2.91934 21.9454C2.8395 21.9652 1.39539 23.9598 1.29331 24.2613C1.24549 24.3447 1.20975 24.4085 1.18363 24.4553C1.33447 24.1176 0.409086 26.1608 0.463493 26.128C0.447879 26.0637 1.04916 24.6438 1.10346 24.5995C1.11516 24.5777 1.12559 24.559 1.13524 24.5413C1.05891 24.6681 1.59792 23.5971 2.30211 22.6864C2.94154 21.832 3.68181 21.083 3.27887 21.488C4.28789 20.4133 3.16541 21.6429 3.916 20.8609ZM9.44118 16.6592C9.31747 16.739 9.19493 16.819 9.07358 16.8992C11.2418 15.5476 13.7709 14.3028 16.4212 13.1674C17.0849 12.8851 16.3063 13.1833 17.1871 12.8219C17.8984 12.5317 18.708 12.2411 18.3223 12.4002C18.2216 12.4389 16.7551 13.0181 16.0644 13.3256C13.9614 14.2628 14.5037 14.0651 14.3811 14.1165C14.2369 14.1818 12.9651 14.7694 12.2331 15.1535C10.4877 16.0824 9.68348 16.5022 7.38123 18.0375C8.68009 17.1415 7.97463 17.5551 9.44118 16.6592ZM99.0995 0.031232C99.199 0.0140105 100.797 0.00661057 101.382 0.000127196C101.288 0.0153719 99.6919 0.0192434 99.0995 0.031232ZM125.139 57.2914C125.633 57.244 121.936 57.4197 122.911 57.3922C123.128 57.3874 124.677 57.3166 125.139 57.2914ZM108.503 57.7873C108.009 57.7993 109.999 57.7967 109.994 57.7765C109.991 57.771 108.567 57.7865 108.503 57.7873ZM39.5718 6.15812C39.6605 6.1369 40.9963 5.85859 41.0407 5.85172C41.923 5.68709 37.5498 6.61328 39.5718 6.15812ZM88.2588 57.4771C89.9917 57.539 84.7818 57.2941 86.372 57.3881C86.4498 57.3938 88.1741 57.4752 88.2588 57.4771ZM81.0338 57.0978C81.445 57.1243 83.288 57.2412 83.3141 57.2341C83.3499 57.2253 81.2414 57.0917 81.0338 57.0978ZM73.4453 1.25612C73.2536 1.24308 75.6526 1.06496 76.4971 0.999761C76.6939 1.0113 74.2916 1.17789 73.4453 1.25612ZM58.2089 2.90181C68.3744 1.61106 66.1229 1.92007 57.6051 2.99774C57.5907 2.98184 57.5666 2.99028 58.2089 2.90181ZM71.2279 1.43513C70.858 1.48661 69.7102 1.58926 68.932 1.66543C69.0748 1.63795 70.6622 1.48916 71.2279 1.43513ZM129.55 57.0694C128.918 57.1365 126.069 57.2761 126.574 57.2364C126.696 57.2308 129.787 57.0443 129.55 57.0694ZM40.4025 5.95565C40.1538 5.97587 43.2053 5.3587 43.4175 5.32904C44.3559 5.16473 40.644 5.88934 40.4025 5.95565ZM87.9257 0.301258C88.4737 0.255193 90.0064 0.20278 90.9935 0.168383C90.5422 0.201775 88.7771 0.262845 87.9257 0.301258ZM80.7808 0.669889C80.8419 0.664522 82.2218 0.581261 82.2846 0.579153C83.4165 0.530111 79.5139 0.76634 80.7808 0.669889ZM200.329 41.2297C200.294 41.2553 199.358 41.7972 199.319 41.8145C198.474 42.2813 201.276 40.6539 200.329 41.2297Z" fill="#2F261C"/>
</svg>
